
<svg id="그룹_13705" data-name="그룹 13705" xmlns="http://www.w3.org/2000/svg" xmlns:xlink="http://www.w3.org/1999/xlink" width="108.054" height="58.579" viewBox="0 0 108.054 58.579">
  <defs>
    <clipPath id="clip-path">
      <rect id="사각형_3606" data-name="사각형 3606" width="108.054" height="58.579" fill="none"/>
    </clipPath>
  </defs>
  <g id="그룹_6836" data-name="그룹 6836" clip-path="url(#clip-path)">
    <path id="패스_3336" data-name="패스 3336" d="M187.933,0a6.258,6.258,0,0,0-4.942,2.423,6.265,6.265,0,0,0-11.213,3.849h3.041a3.231,3.231,0,1,1,6.462,0H184.7a3.231,3.231,0,1,1,6.462,0H194.2A6.279,6.279,0,0,0,187.933,0" transform="translate(-89.685)" fill="#0075be"/>
    <path id="패스_3337" data-name="패스 3337" d="M67.184,90.033l-.006-.01L63,83.481H57.326l2.958,4.634,1.107,1.734a6.311,6.311,0,0,0,3.723,1.269c.058,0,.116.008.172.008H65.3c1.155,0,1.754-.329,1.918-.606a.451.451,0,0,0-.037-.488" transform="translate(-29.93 -43.585)" fill="#ee7d00"/>
    <path id="패스_3338" data-name="패스 3338" d="M37.7,90.072l-.126-.229-1.1-1.727-.512-.8-2.464-3.832H27.733l.788,1.234,2.992,4.662a.793.793,0,0,0,.089.13,3.5,3.5,0,0,0,1.49,1.074,7.014,7.014,0,0,0,2.705.582h.02c1.154,0,1.754-.328,1.917-.605a.45.45,0,0,0-.037-.487" transform="translate(-14.479 -43.586)" fill="#ee7d00"/>
    <path id="패스_3339" data-name="패스 3339" d="M52.577,90.158l-1.3-2.042-2.957-4.634H42.707l2.956,4.634,1.172,1.835a6.509,6.509,0,0,0,3.8,1.195h.016c1.156,0,1.755-.329,1.917-.606a.41.41,0,0,0,.008-.382" transform="translate(-22.297 -43.586)" fill="#0075be"/>
    <path id="패스_3340" data-name="패스 3340" d="M81.907,90.013l-.2-.357-3.36-5.225-.611-.951H72.086l4.083,6.4A5.471,5.471,0,0,0,78.352,90.9a7.02,7.02,0,0,0,1.659.212h.016c1.155,0,1.754-.329,1.918-.606a.453.453,0,0,0-.038-.488" transform="translate(-37.636 -43.585)" fill="#0075be"/>
    <path id="패스_3341" data-name="패스 3341" d="M49.548,95.145v4.4H32.977v-4.83a4.751,4.751,0,0,1-2.783-1.861l-2.682-4.361v15.951H55.08V94.859a4.411,4.411,0,0,1-2.447-.932c-.509,1.141-2.189,1.247-3.085,1.218" transform="translate(-14.364 -46.201)" fill="#00468d"/>
    <path id="패스_3342" data-name="패스 3342" d="M74.212,21.708V8.541H68.569V41.595h5.643V27.351h7.659V21.708Z" transform="translate(-35.8 -4.459)" fill="#00468d"/>
    <path id="패스_3343" data-name="패스 3343" d="M15.9,7.65H10.254v5.4H0V18.69H25.833V13.047H15.9Z" transform="translate(0 -3.994)" fill="#00468d"/>
    <path id="패스_3344" data-name="패스 3344" d="M14.845,32.157A11.153,11.153,0,1,0,26,43.309,11.165,11.165,0,0,0,14.845,32.157m0,16.662a5.509,5.509,0,1,1,5.508-5.509,5.515,5.515,0,0,1-5.508,5.509" transform="translate(-1.927 -16.789)" fill="#00468d"/>
    <path id="패스_3345" data-name="패스 3345" d="M155.977,20.5H121.436a10.17,10.17,0,0,0-10.169,10.169v.565A10.17,10.17,0,0,0,121.436,41.4h24.719l-.971,5.035a.545.545,0,0,0,.238.551.011.011,0,0,0,.008,0,.532.532,0,0,0,.341.078.5.5,0,0,0,.292-.095l6.976-5.573h2.939a10.169,10.169,0,0,0,10.168-10.17v-.565A10.169,10.169,0,0,0,155.977,20.5" transform="translate(-58.092 -10.702)" fill="#ee7d00"/>
    <path id="패스_3346" data-name="패스 3346" d="M121.457,41.733V40.321h4.362V38.233h1.651v2.088h4.362v1.412Zm8.818-3.291a7.3,7.3,0,0,1-1.927-.995,5.973,5.973,0,0,1-1.7-1.682,5.448,5.448,0,0,1-1.61,1.652,7.136,7.136,0,0,1-2.021,1.026l-1.027-1.092a7.107,7.107,0,0,0,2.647-1.572,3.347,3.347,0,0,0,1.138-2.517v-.995h1.743v.995a3.258,3.258,0,0,0,1.115,2.48,7.942,7.942,0,0,0,2.67,1.609Z" transform="translate(-63.412 -16.845)" fill="#fff"/>
    <path id="패스_3347" data-name="패스 3347" d="M152.01,37.466a7.07,7.07,0,0,1-1.356-.816,5.174,5.174,0,0,1-1.179-1.234,4.73,4.73,0,0,1-1.031,1.3,7.484,7.484,0,0,1-1.385.995l-1.132-1.117a5.413,5.413,0,0,0,1.874-1.437,3.02,3.02,0,0,0,.837-1.977v-1.3h1.686v1.3a2.694,2.694,0,0,0,.854,1.891,4.448,4.448,0,0,0,1.787,1.191Zm2.735,1.136a1.824,1.824,0,0,1,0,3.292,7.517,7.517,0,0,1-6.077.006,1.819,1.819,0,0,1,0-3.291,7.451,7.451,0,0,1,6.077-.007m-1.326.964a4.613,4.613,0,0,0-1.7-.258,4.835,4.835,0,0,0-1.721.252q-.649.251-.649.693,0,.417.649.675a5.885,5.885,0,0,0,3.424.006c.421-.168.63-.39.63-.67,0-.294-.209-.528-.63-.7m1.951-4.15v2.456H153.8V31.6h1.568v2.395h1.391v1.425Z" transform="translate(-76.188 -16.496)" fill="#fff"/>
    <path id="패스_3348" data-name="패스 3348" d="M170.645,37.852V36.439h3.69V34.732h1.65v1.707h5.034v1.412Zm8.311,4.4a7.948,7.948,0,0,1-6.242,0,1.869,1.869,0,0,1-1.078-1.621,1.83,1.83,0,0,1,1.072-1.6,8.161,8.161,0,0,1,6.242,0,1.827,1.827,0,0,1,1.079,1.6,1.869,1.869,0,0,1-1.073,1.621m.772-7.663c-.184.827-.281,1.253-.288,1.277h-1.58q.011-.049.16-.761a13.943,13.943,0,0,0,.217-1.425h-6.5V32.264h8.263a10.66,10.66,0,0,1-.277,2.321m-2.134,5.336a6.626,6.626,0,0,0-3.53,0q-.637.239-.637.693c0,.344.212.593.637.749a6.8,6.8,0,0,0,3.53,0c.429-.156.643-.405.643-.749q0-.454-.643-.693" transform="translate(-89.093 -16.845)" fill="#fff"/>
    <path id="패스_3349" data-name="패스 3349" d="M201.456,32.659a2.849,2.849,0,0,1,0,4.07,3.214,3.214,0,0,1-4.35,0,2.851,2.851,0,0,1,0-4.07,3.232,3.232,0,0,1,4.35,0m-3.673,9.5V38.571h1.6v2.174h6.367v1.412Zm.436-8.51a1.577,1.577,0,0,0-.378,1.057,1.558,1.558,0,0,0,.378,1.044,1.319,1.319,0,0,0,1.061.442,1.3,1.3,0,0,0,1.056-.442,1.572,1.572,0,0,0,.371-1.044,1.591,1.591,0,0,0-.371-1.057,1.3,1.3,0,0,0-1.056-.442,1.319,1.319,0,0,0-1.061.442M203.9,31.6h1.568v7.8H203.9Z" transform="translate(-102.462 -16.496)" fill="#fff"/>
    <path id="패스_3350" data-name="패스 3350" d="M159.614,87.187a5.1,5.1,0,1,0-5.1-5.1,5.11,5.11,0,0,0,5.1,5.1m0-7.118a2.015,2.015,0,1,1-2.014,2.015,2.018,2.018,0,0,1,2.014-2.015" transform="translate(-80.669 -40.191)" fill="#0075be"/>
    <path id="패스_3351" data-name="패스 3351" d="M148.622,102.645h6.373v1.483a6.567,6.567,0,0,0-4.97,6.359h3.181a3.38,3.38,0,1,1,6.759,0h3.181a6.568,6.568,0,0,0-4.97-6.359v-1.483h6.284v-3.18H148.622Z" transform="translate(-77.595 -51.93)" fill="#0075be"/>
    <rect id="사각형_3604" data-name="사각형 3604" width="15.818" height="3.181" transform="translate(89.139 47.555)" fill="#0075be"/>
    <path id="패스_3352" data-name="패스 3352" d="M193.3,88.006h9.214V84.825H193.63v-4.57h-3.2v5.55c.057.716.466,2.2,2.869,2.2" transform="translate(-99.422 -41.901)" fill="#0075be"/>
    <path id="패스_3353" data-name="패스 3353" d="M193.58,109.107h-3.169v3.873l.006-.013s0,.038-.006.1v.146c.019.644.314,2.331,2.877,2.331h9.222v-3.181h-8.93Z" transform="translate(-99.413 -56.964)" fill="#0075be"/>
    <path id="패스_3354" data-name="패스 3354" d="M102.266,84.7v3.181a3.38,3.38,0,0,1,0,6.759v3.181a6.561,6.561,0,0,0,0-13.122" transform="translate(-53.393 -44.223)" fill="#0075be"/>
    <rect id="사각형_3605" data-name="사각형 3605" width="2.478" height="20.104" transform="translate(66.068 38.43)" fill="#0075be"/>
    <path id="패스_3355" data-name="패스 3355" d="M122.812,87.418h-1.039a6.567,6.567,0,0,0-6.353-4.954v3.181a3.38,3.38,0,0,1,0,6.759v3.181a6.567,6.567,0,0,0,6.325-4.842h1.068v9.774h2.479v-20.1h-2.479Z" transform="translate(-60.26 -41.984)" fill="#0075be"/>
  </g>
</svg>
